<?xml version="1.0" encoding="UTF-8" standalone="no"?>
<!-- Generator: Adobe Illustrator 16.0.0, SVG Export Plug-In . SVG Version: 6.00 Build 0)  -->

<svg
   xmlns:dc="http://purl.org/dc/elements/1.1/"
   xmlns:cc="http://creativecommons.org/ns#"
   xmlns:rdf="http://www.w3.org/1999/02/22-rdf-syntax-ns#"
   xmlns:svg="http://www.w3.org/2000/svg"
   xmlns="http://www.w3.org/2000/svg"
   xmlns:sodipodi="http://sodipodi.sourceforge.net/DTD/sodipodi-0.dtd"
   xmlns:inkscape="http://www.inkscape.org/namespaces/inkscape"
   version="1.1"
   x="0px"
   y="0px"
   width="5"
   height="2.8125577"
   viewBox="0 0 182.72625 164.457"
   xml:space="preserve"
   id="svg6"
   sodipodi:docname="caret-down.svg"
   inkscape:version="0.92.3 (2405546, 2018-03-11)"><metadata
   id="metadata12"><rdf:RDF><cc:Work
       rdf:about=""><dc:format>image/svg+xml</dc:format><dc:type
         rdf:resource="http://purl.org/dc/dcmitype/StillImage" /><dc:title></dc:title></cc:Work></rdf:RDF></metadata><defs
   id="defs10" /><sodipodi:namedview
   pagecolor="#ffffff"
   bordercolor="#666666"
   borderopacity="1"
   objecttolerance="10"
   gridtolerance="10"
   guidetolerance="10"
   inkscape:pageopacity="0"
   inkscape:pageshadow="2"
   inkscape:window-width="1920"
   inkscape:window-height="1052"
   id="namedview8"
   showgrid="false"
   fit-margin-top="0"
   fit-margin-left="0"
   fit-margin-right="0"
   fit-margin-bottom="0"
   inkscape:zoom="47.2"
   inkscape:cx="3.0625"
   inkscape:cy="1.4062874"
   inkscape:window-x="0"
   inkscape:window-y="13"
   inkscape:window-maximized="1"
   inkscape:current-layer="svg6" />
<g
   id="g4"
   transform="translate(-54.817876,-63.953)">
	<path
   d="m 286.935,69.377 c -3.614,-3.617 -7.898,-5.424 -12.848,-5.424 H 18.274 c -4.952,0 -9.233,1.807 -12.85,5.424 C 1.807,72.998 0,77.279 0,82.228 c 0,4.948 1.807,9.229 5.424,12.847 l 127.907,127.907 c 3.621,3.617 7.902,5.428 12.85,5.428 4.948,0 9.233,-1.811 12.847,-5.428 L 286.935,95.074 c 3.613,-3.617 5.427,-7.898 5.427,-12.847 0,-4.948 -1.814,-9.229 -5.427,-12.85 z"
   id="path2"
   inkscape:connector-curvature="0" />
</g>
</svg>